<svg width="140" height="139" viewBox="0 0 140 139"  xmlns="http://www.w3.org/2000/svg">
<g class="fr-artwork-decorative" id="artwork-decorative">
<path fill-rule="evenodd" clip-rule="evenodd" d="M127.337 31.2753C126.379 31.2753 125.6 30.4959 125.6 29.5378C125.6 28.5797 126.379 27.8003 127.337 27.8003C128.295 27.8003 129.075 28.5797 129.075 29.5378C129.075 30.4959 128.295 31.2753 127.337 31.2753Z" />
<path fill-rule="evenodd" clip-rule="evenodd" d="M12.6623 31.2753C11.7042 31.2753 10.9248 30.4959 10.9248 29.5378C10.9248 28.5797 11.7042 27.8003 12.6623 27.8003C13.6204 27.8003 14.3998 28.5797 14.3998 29.5378C14.3998 30.4959 13.6204 31.2753 12.6623 31.2753Z" />
<path fill-rule="evenodd" clip-rule="evenodd" d="M19.6125 118.15C18.6544 118.15 17.875 117.371 17.875 116.413C17.875 115.455 18.6544 114.675 19.6125 114.675C20.5706 114.675 21.35 115.455 21.35 116.413C21.35 117.371 20.5706 118.15 19.6125 118.15Z" />
<path fill-rule="evenodd" clip-rule="evenodd" d="M113.437 125.1C112.479 125.1 111.7 124.321 111.7 123.362C111.7 122.404 112.479 121.625 113.437 121.625C114.395 121.625 115.175 122.404 115.175 123.362C115.175 124.321 114.395 125.1 113.437 125.1Z" />
<path fill-rule="evenodd" clip-rule="evenodd" d="M33.5124 10.4252C32.5543 10.4252 31.7749 9.64575 31.7749 8.6877C31.7749 7.72956 32.5543 6.9502 33.5124 6.9502C34.4705 6.9502 35.2499 7.72956 35.2499 8.6877C35.2499 9.64575 34.4705 10.4252 33.5124 10.4252Z" />
<path fill-rule="evenodd" clip-rule="evenodd" d="M96.0622 135.525C95.1042 135.525 94.3247 134.746 94.3247 133.788C94.3247 132.83 95.1042 132.05 96.0622 132.05C97.0203 132.05 97.7997 132.83 97.7997 133.788C97.7997 134.746 97.0203 135.525 96.0622 135.525Z" />
</g>

<g class="fr-artwork-minor" id="artwork-minor">
<path fill-rule="evenodd" clip-rule="evenodd" d="M28.2998 52.1251C28.2998 48.2912 31.416 45.1751 35.2498 45.1751C39.0836 45.1751 42.1998 48.2912 42.1998 52.1251C42.1998 55.9589 39.0836 59.0751 35.2498 59.0751C31.416 59.0751 28.2998 55.9589 28.2998 52.1251ZM38.7248 52.1251C38.7248 50.2104 37.1645 48.6501 35.2498 48.6501C33.3351 48.6501 31.7748 50.2104 31.7748 52.1251C31.7748 54.0397 33.3352 55.6001 35.2498 55.6001C37.1644 55.6001 38.7248 54.0397 38.7248 52.1251Z" />
<path fill-rule="evenodd" clip-rule="evenodd" d="M45.6748 45.1751C45.6748 41.3412 48.791 38.2251 52.6248 38.2251C56.4586 38.2251 59.5748 41.3412 59.5748 45.1751C59.5748 49.0089 56.4586 52.1251 52.6248 52.1251C48.791 52.1251 45.6748 49.0089 45.6748 45.1751ZM56.0998 45.1751C56.0998 43.2604 54.5395 41.7001 52.6248 41.7001C50.7101 41.7001 49.1498 43.2604 49.1498 45.1751C49.1498 47.0897 50.7102 48.6501 52.6248 48.6501C54.5394 48.6501 56.0998 47.0897 56.0998 45.1751Z" />
<path d="M46.6353 45.3585C47.4936 44.9294 48.5372 45.2773 48.9664 46.1356C49.3649 46.9325 49.0934 47.8894 48.3653 48.3656L48.1893 48.4667L41.2393 51.9417C40.3811 52.3708 39.3374 52.0229 38.9082 51.1646C38.5097 50.3677 38.7812 49.4108 39.5093 48.9346L39.6853 48.8335L46.6353 45.3585Z" />
<path d="M56.6087 47.4215C57.235 46.7952 58.2206 46.747 58.9022 47.277L59.0659 47.4215L66.0159 54.3715C66.6944 55.05 66.6944 56.1502 66.0159 56.8287C65.3896 57.455 64.404 57.5032 63.7224 56.9732L63.5587 56.8287L56.6087 49.8787C55.9302 49.2002 55.9302 48.1 56.6087 47.4215Z" />
<path fill-rule="evenodd" clip-rule="evenodd" d="M87.3748 59.0751C87.3748 49.4925 95.1674 41.7001 104.75 41.7001C114.332 41.7001 122.125 49.4925 122.125 59.0751C122.125 68.6572 114.332 76.4501 104.75 76.4501C95.1677 76.4501 87.3748 68.6572 87.3748 59.0751ZM118.65 59.0751C118.65 51.4117 112.413 45.1751 104.75 45.1751C97.0866 45.1751 90.8498 51.4117 90.8498 59.0751C90.8498 66.738 97.0869 72.9751 104.75 72.9751C112.413 72.9751 118.65 66.738 118.65 59.0751Z" />
<path d="M104.813 49.9215C105.071 48.9971 106.029 48.4564 106.953 48.7138C111.018 49.8457 114.135 53.0339 114.96 56.987C115.156 57.9264 114.553 58.8468 113.614 59.0429C112.674 59.2389 111.754 58.6363 111.558 57.697C111.004 55.0448 108.861 52.8523 106.021 52.0614C105.097 51.804 104.556 50.8459 104.813 49.9215Z"/>
<path d="M115.112 69.7329C115.884 69.2874 116.855 69.501 117.374 70.1992L117.486 70.3688L127.911 88.4255C129.35 90.9186 128.496 94.1065 126.003 95.5459C123.599 96.9339 120.549 96.1892 119.043 93.8988L118.883 93.638L108.458 75.5813C107.978 74.7503 108.263 73.6877 109.094 73.2079C109.865 72.7624 110.837 72.976 111.356 73.6742L111.467 73.8438L121.892 91.9005C122.372 92.7315 123.434 93.0162 124.265 92.5364C125.037 92.0909 125.338 91.1428 124.993 90.3443L124.901 90.163L114.476 72.1063C113.997 71.2753 114.281 70.2127 115.112 69.7329Z" />
<path d="M77.9103 52.3085C78.7686 51.8794 79.8122 52.2273 80.2414 53.0856C80.6399 53.8825 80.3684 54.8394 79.6403 55.3156L79.4643 55.4167L75.9893 57.1542C75.1311 57.5833 74.0874 57.2354 73.6582 56.3771C73.2597 55.5802 73.5312 54.6233 74.2593 54.1471L74.4353 54.046L77.9103 52.3085Z" />
<path fill-rule="evenodd" clip-rule="evenodd" d="M63.0498 55.6001C63.0498 51.7662 66.166 48.6501 69.9998 48.6501C73.8336 48.6501 76.9498 51.7662 76.9498 55.6001C76.9498 59.4339 73.8336 62.5501 69.9998 62.5501C66.166 62.5501 63.0498 59.4339 63.0498 55.6001ZM73.4748 55.6001C73.4748 53.6854 71.9145 52.1251 69.9998 52.1251C68.0851 52.1251 66.5248 53.6854 66.5248 55.6001C66.5248 57.5147 68.0852 59.0751 69.9998 59.0751C71.9144 59.0751 73.4748 57.5147 73.4748 55.6001Z" />
</g>
<g class="fr-artwork-major" id="artwork-major">
<path d="M103.012 27.8001C103.904 27.8001 104.638 28.4708 104.738 29.335L104.75 29.5376V33.0126C104.75 33.9722 103.972 34.7501 103.012 34.7501C102.121 34.7501 101.387 34.0794 101.287 33.2152L101.275 33.0126V31.2751H21.35V93.8251H101.275V85.1376C101.275 84.2465 101.946 83.5122 102.81 83.4118L103.012 83.4001C103.904 83.4001 104.638 84.0708 104.738 84.935L104.75 85.1376V95.5626C104.75 96.4537 104.079 97.188 103.215 97.2884L103.012 97.3001H19.6125C18.7214 97.3001 17.9871 96.6294 17.8867 95.7652L17.875 95.5626V29.5376C17.875 28.6465 18.5457 27.9122 19.4099 27.8118L19.6125 27.8001H103.012Z" />
<path d="M68.2625 31.2751C69.1536 31.2751 69.8879 30.6044 69.9883 29.7402L70 29.5376V26.0626C70 23.2866 67.83 21.0175 65.0938 20.8589L64.7875 20.8501H57.8375C55.0615 20.8501 52.7924 23.0201 52.6338 25.7563L52.625 26.0626V29.5376C52.625 30.4972 53.4029 31.2751 54.3625 31.2751C55.2536 31.2751 55.9879 30.6044 56.0883 29.7402L56.1 29.5376V26.0626C56.1 25.1715 56.7707 24.4372 57.6349 24.3368L57.8375 24.3251H64.7875C65.6786 24.3251 66.4129 24.9958 66.5133 25.86L66.525 26.0626V29.5376C66.525 30.4972 67.3029 31.2751 68.2625 31.2751Z" />
<path d="M89.1125 93.8251C90.0036 93.8251 90.7379 94.4958 90.8383 95.36L90.85 95.5626V99.0376C90.85 101.814 88.68 104.083 85.9438 104.241L85.6375 104.25H36.9875C34.2115 104.25 31.9424 102.08 31.7838 99.3439L31.775 99.0376V95.5626C31.775 94.603 32.5529 93.8251 33.5125 93.8251C34.4036 93.8251 35.1379 94.4958 35.2383 95.36L35.25 95.5626V99.0376C35.25 99.9287 35.9207 100.663 36.7849 100.763L36.9875 100.775H85.6375C86.5286 100.775 87.2629 100.104 87.3633 99.2402L87.375 99.0376V95.5626C87.375 94.603 88.1529 93.8251 89.1125 93.8251Z" />
<path d="M66.1775 101.47C65.6017 100.702 64.5127 100.547 63.745 101.123C63.0364 101.654 62.8493 102.623 63.2776 103.373L63.3975 103.555L73.8225 117.455C74.3982 118.223 75.4873 118.378 76.255 117.803C76.9636 117.271 77.1507 116.302 76.7224 115.553L76.6025 115.37L66.1775 101.47Z" />
<path d="M40.4625 66.0251C41.3536 66.0251 42.0879 66.6958 42.1883 67.56L42.2 67.7626V71.2376C42.2 72.1972 41.4221 72.9751 40.4625 72.9751C39.5714 72.9751 38.8371 72.3044 38.7367 71.4402L38.725 71.2376V69.5001H31.775V83.4001H38.725V78.1876C38.725 77.2965 39.3957 76.5622 40.2599 76.4618L40.4625 76.4501C41.3536 76.4501 42.0879 77.1208 42.1883 77.985L42.2 78.1876V85.1376C42.2 86.0287 41.5293 86.763 40.6651 86.8634L40.4625 86.8751H30.0375C29.1464 86.8751 28.4121 86.2044 28.3117 85.3402L28.3 85.1376V67.7626C28.3 66.8715 28.9707 66.1372 29.8349 66.0368L30.0375 66.0251H40.4625Z" />
<path d="M50.8875 59.0751C51.8471 59.0751 52.625 59.853 52.625 60.8126C52.625 61.7037 51.9543 62.438 51.0901 62.5384L50.8875 62.5501H49.15V83.4001H56.1V64.2876C56.1 63.3965 56.7707 62.6622 57.6349 62.5618L57.8375 62.5501C58.7286 62.5501 59.4629 63.2208 59.5633 64.085L59.575 64.2876V85.1376C59.575 86.0287 58.9043 86.763 58.0401 86.8634L57.8375 86.8751H47.4125C46.5214 86.8751 45.7871 86.2044 45.6867 85.3402L45.675 85.1376V60.8126C45.675 59.9215 46.3457 59.1872 47.2099 59.0868L47.4125 59.0751H50.8875Z" />
<path d="M68.2625 72.9751C69.2221 72.9751 70 73.753 70 74.7126C70 75.6037 69.3293 76.338 68.4651 76.4384L68.2625 76.4501H66.525V83.4001H73.475V74.7126C73.475 73.8215 74.1457 73.0872 75.0099 72.9868L75.2125 72.9751C76.1036 72.9751 76.8379 73.6458 76.9383 74.51L76.95 74.7126V85.1376C76.95 86.0287 76.2793 86.763 75.4151 86.8634L75.2125 86.8751H64.7875C63.8964 86.8751 63.1621 86.2044 63.0617 85.3402L63.05 85.1376V74.7126C63.05 73.8215 63.7207 73.0872 64.5849 72.9868L64.7875 72.9751H68.2625Z" />
<path d="M82.1625 69.5001C83.0536 69.5001 83.7879 70.1708 83.8883 71.035L83.9 71.2376V83.4001H90.85V81.6626C90.85 80.7715 91.5207 80.0372 92.3849 79.9368L92.5875 79.9251C93.4786 79.9251 94.2129 80.5958 94.3133 81.46L94.325 81.6626V85.1376C94.325 86.0287 93.6543 86.763 92.7901 86.8634L92.5875 86.8751H82.1625C81.2714 86.8751 80.5371 86.2044 80.4367 85.3402L80.425 85.1376V71.2376C80.425 70.278 81.2029 69.5001 82.1625 69.5001Z"/>
<path d="M56.4475 101.47C57.0233 100.702 58.1123 100.547 58.88 101.123C59.5886 101.654 59.7757 102.623 59.3474 103.373L59.2275 103.555L48.8025 117.455C48.2267 118.223 47.1377 118.378 46.37 117.803C45.6614 117.271 45.4743 116.302 45.9026 115.553L46.0225 115.37L56.4475 101.47Z" />
</g>
</svg>
