<svg width="160" height="159" viewBox="0 0 160 159" xmlns="http://www.w3.org/2000/svg">
<g class="fr-artwork-decorative" id="artwork-decorative">
<path fill-rule="evenodd" clip-rule="evenodd" d="M139.624 137.137C138.528 137.137 137.637 136.246 137.637 135.15C137.637 134.054 138.528 133.162 139.624 133.162C140.72 133.162 141.612 134.054 141.612 135.15C141.612 136.246 140.72 137.137 139.624 137.137Z" />
<path fill-rule="evenodd" clip-rule="evenodd" d="M135.649 25.8373C134.553 25.8373 133.662 24.9457 133.662 23.8498C133.662 22.7538 134.553 21.8623 135.649 21.8623C136.745 21.8623 137.637 22.7538 137.637 23.8498C137.637 24.9457 136.745 25.8373 135.649 25.8373Z" />
<path fill-rule="evenodd" clip-rule="evenodd" d="M28.3244 137.137C27.2285 137.137 26.3369 136.246 26.3369 135.15C26.3369 134.054 27.2285 133.162 28.3244 133.162C29.4203 133.162 30.3119 134.054 30.3119 135.15C30.3119 136.246 29.4203 137.137 28.3244 137.137Z" />
<path fill-rule="evenodd" clip-rule="evenodd" d="M20.3742 33.7875C19.2783 33.7875 18.3867 32.8959 18.3867 31.8C18.3867 30.704 19.2783 29.8125 20.3742 29.8125C21.4701 29.8125 22.3617 30.704 22.3617 31.8C22.3617 32.8959 21.4701 33.7875 20.3742 33.7875Z" />
</g>
<g class="fr-artwork-minor" id="artwork-minor">
<path fill-rule="evenodd" clip-rule="evenodd" d="M32.2988 65.5877C32.2988 62.2947 34.9683 59.6252 38.2613 59.6252C41.5543 59.6252 44.2238 62.2947 44.2238 65.5877C44.2238 68.8807 41.5543 71.5502 38.2613 71.5502C34.9683 71.5502 32.2988 68.8807 32.2988 65.5877ZM40.2488 65.5877C40.2488 64.49 39.359 63.6002 38.2613 63.6002C37.1637 63.6002 36.2738 64.49 36.2738 65.5877C36.2738 66.6854 37.1637 67.5752 38.2613 67.5752C39.359 67.5752 40.2488 66.6854 40.2488 65.5877Z" />
<path d="M38.2613 67.5752C39.2806 67.5752 40.1206 68.3425 40.2355 69.3309L40.2488 69.5627V77.5127C40.2488 78.6104 39.359 79.5002 38.2613 79.5002C37.2421 79.5002 36.402 78.7329 36.2872 77.7445L36.2738 77.5127V69.5627C36.2738 68.465 37.1637 67.5752 38.2613 67.5752Z" />
<path fill-rule="evenodd" clip-rule="evenodd" d="M76.0238 57.6377C76.0238 54.3447 78.6933 51.6752 81.9863 51.6752C85.2793 51.6752 87.9488 54.3447 87.9488 57.6377C87.9488 60.9307 85.2793 63.6002 81.9863 63.6002C78.6933 63.6002 76.0238 60.9307 76.0238 57.6377ZM83.9738 57.6377C83.9738 56.54 83.084 55.6502 81.9863 55.6502C80.8887 55.6502 79.9988 56.54 79.9988 57.6377C79.9988 58.7354 80.8887 59.6252 81.9863 59.6252C83.084 59.6252 83.9738 58.7354 83.9738 57.6377Z" />
<path d="M81.9863 59.6252C83.0056 59.6252 83.8456 60.3925 83.9605 61.3809L83.9738 61.6127V69.5627C83.9738 70.6604 83.084 71.5502 81.9863 71.5502C80.9671 71.5502 80.127 70.7829 80.0122 69.7945L79.9988 69.5627V61.6127C79.9988 60.515 80.8887 59.6252 81.9863 59.6252Z" />
<path fill-rule="evenodd" clip-rule="evenodd" d="M111.799 33.7877C111.799 30.4947 114.468 27.8252 117.761 27.8252C121.054 27.8252 123.724 30.4947 123.724 33.7877C123.724 37.0807 121.054 39.7502 117.761 39.7502C114.468 39.7502 111.799 37.0807 111.799 33.7877ZM119.749 33.7877C119.749 32.69 118.859 31.8002 117.761 31.8002C116.664 31.8002 115.774 32.69 115.774 33.7877C115.774 34.8854 116.664 35.7752 117.761 35.7752C118.859 35.7752 119.749 34.8854 119.749 33.7877Z" />
<path d="M117.761 35.7752C118.781 35.7752 119.621 36.5425 119.735 37.5309L119.749 37.7627V45.7127C119.749 46.8104 118.859 47.7002 117.761 47.7002C116.742 47.7002 115.902 46.9329 115.787 45.9445L115.774 45.7127V37.7627C115.774 36.665 116.664 35.7752 117.761 35.7752Z" />
<path fill-rule="evenodd" clip-rule="evenodd" d="M95.8988 77.5127C95.8988 74.2197 98.5683 71.5502 101.861 71.5502C105.154 71.5502 107.824 74.2197 107.824 77.5127C107.824 80.8057 105.154 83.4752 101.861 83.4752C98.5683 83.4752 95.8988 80.8057 95.8988 77.5127ZM103.849 77.5127C103.849 76.415 102.959 75.5252 101.861 75.5252C100.764 75.5252 99.8738 76.415 99.8738 77.5127C99.8738 78.6104 100.764 79.5002 101.861 79.5002C102.959 79.5002 103.849 78.6104 103.849 77.5127Z" />
<path d="M101.861 79.5002C102.881 79.5002 103.721 80.2675 103.835 81.2559L103.849 81.4877V89.4377C103.849 90.5354 102.959 91.4252 101.861 91.4252C100.842 91.4252 100.002 90.6579 99.8872 89.6695L99.8738 89.4377V81.4877C99.8738 80.39 100.764 79.5002 101.861 79.5002Z" />
<path fill-rule="evenodd" clip-rule="evenodd" d="M68.0738 97.3877C68.0738 94.0947 70.7433 91.4252 74.0363 91.4252C77.3293 91.4252 79.9988 94.0947 79.9988 97.3877C79.9988 100.681 77.3293 103.35 74.0363 103.35C70.7433 103.35 68.0738 100.681 68.0738 97.3877ZM76.0238 97.3877C76.0238 96.29 75.134 95.4002 74.0363 95.4002C72.9387 95.4002 72.0488 96.29 72.0488 97.3877C72.0488 98.4854 72.9387 99.3752 74.0363 99.3752C75.134 99.3752 76.0238 98.4854 76.0238 97.3877Z" />
<path d="M74.0363 99.3752C75.0556 99.3752 75.8957 100.142 76.0105 101.131L76.0238 101.363V109.313C76.0238 110.41 75.134 111.3 74.0363 111.3C73.0171 111.3 72.177 110.533 72.0622 109.544L72.0488 109.313V101.363C72.0488 100.265 72.9387 99.3752 74.0363 99.3752Z" />
<path fill-rule="evenodd" clip-rule="evenodd" d="M99.8738 117.263C99.8738 113.97 102.543 111.3 105.836 111.3C109.129 111.3 111.799 113.97 111.799 117.263C111.799 120.556 109.129 123.225 105.836 123.225C102.543 123.225 99.8738 120.556 99.8738 117.263ZM107.824 117.263C107.824 116.165 106.934 115.275 105.836 115.275C104.739 115.275 103.849 116.165 103.849 117.263C103.849 118.36 104.739 119.25 105.836 119.25C106.934 119.25 107.824 118.36 107.824 117.263Z" />
<path d="M105.836 119.25C106.856 119.25 107.696 120.017 107.81 121.006L107.824 121.238V129.188C107.824 130.285 106.934 131.175 105.836 131.175C104.817 131.175 103.977 130.408 103.862 129.419L103.849 129.188V121.238C103.849 120.14 104.739 119.25 105.836 119.25Z" />
</g>
<g class="fr-artwork-major" id="artwork-major">
<path fill-rule="evenodd" clip-rule="evenodd" d="M125.793 47.7018L131.094 47.9185C131.434 47.9323 131.765 48.0332 132.054 48.2114C134.612 49.7848 135.582 52.989 134.337 55.647L134.17 55.9763L132.606 58.8321L132.552 59.4066C132.522 59.7185 132.468 60.0191 132.389 60.3192L132.251 60.7702L131.113 63.932L131.207 69.3779C131.241 71.0502 130.548 72.6358 129.309 73.7715L129.013 74.0254L126.702 75.8821C126.343 76.1699 125.951 76.4155 125.534 76.6151L125.298 76.7176L123.161 79.3729L123.301 79.4944C123.957 80.1019 124.474 80.8547 124.798 81.71L124.926 82.0827L125.242 83.1293L125.638 83.6156L126.938 85.4838C127.964 86.9723 128.22 88.8064 127.716 90.4629L127.602 90.7911L128.25 91.5368C129.141 92.5758 129.64 93.8683 129.668 95.219L129.663 95.6258L129.552 97.6644C129.497 98.5984 129.214 99.4941 128.746 100.284L128.627 100.468L128.786 100.734C129.274 101.615 129.525 102.613 129.504 103.638L129.486 103.954L129.784 103.986C131.629 104.234 133.308 105.31 134.253 106.995L134.421 107.318L135.088 108.712C135.973 110.574 135.798 112.735 134.685 114.382L134.653 114.424L134.652 114.674C134.585 116.194 133.913 117.64 132.757 118.704L132.458 118.961L128.378 122.224L128.183 122.362L127.268 122.925L127.248 123.056C127.188 123.357 127.104 123.652 126.997 123.939L126.819 124.363C126.215 125.673 125.119 126.723 123.774 127.307L123.402 127.455L119.791 128.739C119.46 128.849 119.167 128.928 118.879 128.981L118.591 129.027L115.917 129.395C115.161 129.499 114.375 129.462 113.632 129.282C112.565 129.025 111.908 127.952 112.165 126.885C112.404 125.894 113.346 125.257 114.334 125.377L114.563 125.418C114.735 125.46 114.919 125.48 115.102 125.477L115.374 125.457L118.061 125.088C118.147 125.077 118.233 125.059 118.334 125.031L118.497 124.981L122.064 123.712C122.582 123.526 123.003 123.147 123.215 122.688C123.307 122.49 123.363 122.278 123.38 122.064L123.384 121.849C123.357 121.211 123.638 120.604 124.13 120.212L124.324 120.075L125.998 119.037L129.968 115.863C130.442 115.481 130.693 114.941 130.681 114.387L130.66 114.149C130.591 113.713 130.669 113.27 130.877 112.886L131.018 112.664L131.282 112.305C131.659 111.824 131.768 111.216 131.593 110.659L131.501 110.423L130.839 109.041C130.43 108.194 129.447 107.744 128.483 107.956L128.243 108.023L127.732 108.198C127.229 108.37 126.682 108.333 126.211 108.101L125.982 107.969L125.501 107.647C124.58 107.03 124.353 105.793 124.952 104.895L125.093 104.708C125.343 104.414 125.491 104.062 125.523 103.682C125.565 103.195 125.414 102.725 125.095 102.35L124.921 102.17L124.635 101.907C123.775 101.119 123.786 99.7827 124.607 99.0036L124.795 98.8455C125.195 98.5494 125.465 98.1217 125.554 97.668L125.584 97.4394L125.693 95.4217C125.712 95.0356 125.604 94.6545 125.385 94.3253L125.241 94.1345L123.711 92.3734C123.152 91.7297 123.071 90.8103 123.485 90.0855L123.624 89.8744C124.045 89.3146 124.106 88.5792 123.802 87.9694L123.67 87.7472L122.473 86.0159L121.922 85.3471C121.81 85.212 121.717 85.0629 121.645 84.9041L121.553 84.6589L121.122 83.237C120.947 82.6608 120.488 82.1959 119.887 81.9774L119.655 81.9072C118.319 81.5815 117.731 80.0488 118.439 78.9241L118.577 78.7302L122.54 73.8059C122.739 73.5583 122.994 73.3631 123.283 73.2352L123.505 73.1521C123.682 73.0977 123.849 73.0229 124 72.9312L124.215 72.7815L126.522 70.9279C126.925 70.6034 127.168 70.1673 127.221 69.6926L127.232 69.4524L127.134 63.6386C127.131 63.4784 127.148 63.3188 127.183 63.1632L127.251 62.9332L128.504 59.4443L128.562 59.238L128.596 59.0256L128.686 58.0581C128.703 57.8783 128.744 57.702 128.808 57.5341L128.921 57.2889L130.683 54.0671C131.036 53.423 130.947 52.6399 130.497 52.0652L130.314 51.8639L125.63 51.6735C124.612 51.6318 123.804 50.8309 123.729 49.8386L123.726 49.6064C123.767 48.588 124.568 47.78 125.56 47.7057L125.793 47.7018Z" />
<path fill-rule="evenodd" clip-rule="evenodd" d="M81.8412 24.0234C84.159 23.4665 86.601 24.278 88.0599 26.0792L88.2937 26.3885L88.9348 27.2925L89.2846 27.3246C91.5004 27.5905 93.391 29.0235 94.1817 31.0888L94.2056 31.1641C94.8571 31.4457 95.4378 31.8251 95.9404 32.2938L96.0142 32.3685L96.1209 32.4005C96.2506 32.4434 96.3784 32.4906 96.5042 32.542L96.8748 32.7082L98.5125 33.4958C99.0284 33.7485 99.5002 34.0664 99.917 34.4399L100.037 34.5568L100.173 34.5259C101.798 34.1328 103.544 34.444 104.947 35.3603L105.291 35.6019C106.333 36.3937 107.067 37.4764 107.408 38.6893L107.51 39.1221L108.94 40.0931C109.151 40.2364 109.332 40.4186 109.474 40.6292L109.602 40.8488L111.589 44.8238C112.08 45.8056 111.682 46.9994 110.7 47.4903C109.789 47.9461 108.694 47.6355 108.149 46.8028L108.034 46.6014L106.278 43.0891L104.519 41.8964C104.042 41.5727 103.732 41.0607 103.662 40.4964L103.631 40.0075C103.566 39.5255 103.308 39.0876 102.89 38.7695C102.457 38.4424 101.896 38.2905 101.357 38.3477L101.089 38.3939L99.7522 38.7038C99.0067 38.8766 98.2365 38.6053 97.7625 38.0229L97.6158 37.8175C97.4604 37.5676 97.244 37.3517 96.9818 37.1862L96.7768 37.0719L95.1386 36.284C95.0215 36.2265 94.9026 36.1809 94.781 36.1465L94.5964 36.1033C94.2093 36.0313 93.8541 35.8463 93.5743 35.5742L93.4158 35.4007C93.1821 35.1122 92.8653 34.891 92.5036 34.763L92.2245 34.6849C91.6005 34.5545 91.0819 34.1343 90.8219 33.5625L90.7368 33.3412L90.5118 32.6328C90.2794 31.8885 89.6125 31.3587 88.7871 31.2686L88.535 31.2549H87.8979C87.3339 31.2549 86.8006 31.0156 86.4265 30.6035L86.2762 30.4165L85.0476 28.6826C84.6213 28.0778 83.8319 27.7467 83.0496 27.8375L82.7896 27.8836L76.2618 29.5228C75.7375 29.6549 75.3051 29.9632 75.0339 30.3828L74.912 30.6015L73.4827 33.6207C73.387 33.8273 73.3305 34.0517 73.316 34.2763L73.3156 34.5002L73.5781 38.4504C73.6131 38.9778 73.4366 39.4936 73.0942 39.887L72.9093 40.073L71.066 41.6981C70.932 41.8163 70.7829 41.9156 70.623 41.9936L70.3755 42.0943L63.4991 44.3675C62.8083 44.5939 62.3147 45.1336 62.1693 45.7736L62.1314 46.0179L62.0932 46.4604C61.9988 47.5555 61.04 48.3502 59.9719 48.2724L59.7416 48.2421L56.121 47.5533C55.7983 47.4919 55.4972 47.3518 55.2437 47.147L55.0628 46.9815L52.2771 44.0972C51.9146 43.7238 51.3925 43.4884 50.8885 43.4619L50.6389 43.4664L47.3971 43.6252C46.7592 43.6597 46.1945 43.9541 45.8344 44.4293C45.5386 44.8162 45.411 45.2824 45.465 45.7447L45.5072 45.9751L46.5394 50.0315L47.9135 53.2044C48.5115 54.5862 47.4195 56.074 45.9687 55.9783L45.7486 55.9518L44.6681 55.7636C44.3586 55.7068 44.0376 55.7189 43.7309 55.7975L43.5039 55.869L43.1952 55.986C42.5514 56.23 41.8336 56.1218 41.2935 55.714L41.0998 55.5472L39.63 54.1071C39.271 53.7547 38.7664 53.5434 38.2203 53.5149L37.9443 53.5162L29.9969 54.205C29.8368 54.2178 29.6814 54.2482 29.5241 54.298L29.2859 54.3875L23.5259 56.9784C22.6505 57.3728 22.2127 58.2487 22.4078 59.0963L22.4698 59.3073L23.3478 61.7424C23.4562 62.042 23.6534 62.321 23.9212 62.5485L24.1349 62.709C24.7469 63.1142 25.0803 63.8188 25.018 64.5373L24.9824 64.777C24.8871 65.2282 24.9664 65.7001 25.2333 66.1363L25.3826 66.3897L25.6555 66.8132C25.6979 66.8749 25.7387 66.9323 25.7778 66.9856L25.991 67.2575L26.1584 67.4402L26.2752 67.5429C26.3051 67.5649 26.3258 67.5751 26.3364 67.5751C27.4341 67.5751 28.3239 68.465 28.3239 69.5626C28.3239 70.6603 27.4341 71.5501 26.3364 71.5501C24.4914 71.5501 23.0319 70.2915 21.8151 68.1642C21.3518 67.4102 21.075 66.5645 20.9935 65.6974L20.9682 65.2259L20.9525 65.211C20.4567 64.708 20.0541 64.124 19.7673 63.4838L19.6093 63.0932L18.7299 60.6541C17.7345 57.8864 18.9647 54.877 21.5623 53.5153L21.8941 53.3538L27.6793 50.7517C28.2072 50.5226 28.7326 50.3693 29.2656 50.2896L29.667 50.2437L37.6508 49.5523C39.3135 49.4502 40.9091 49.9636 42.1189 50.9992L42.4131 51.2689L42.9857 51.8321L42.8304 51.4672L42.7284 51.1685L41.6534 46.949C41.2225 45.2304 41.5972 43.4269 42.6714 42.0219C43.657 40.7212 45.1379 39.8885 46.7791 39.6914L47.1925 39.6555L50.3533 39.5027C51.9319 39.3525 53.6033 39.941 54.8345 41.0454L55.1328 41.3321L57.4826 43.7649L58.5856 43.9755L58.648 43.8231C59.266 42.4344 60.4198 41.3141 61.8841 40.7272L62.2565 40.5918L68.7398 38.4483L69.5447 37.7368L69.3487 34.7546C69.2977 33.9277 69.4239 33.1 69.7205 32.3203L69.883 31.9347L71.3197 28.8998C72.0257 27.4105 73.3181 26.2934 74.893 25.7827L75.2924 25.6679L81.8412 24.0234Z" />
<path fill-rule="evenodd" clip-rule="evenodd" d="M41.0278 83.8848C41.8992 83.2173 43.1468 83.3826 43.8142 84.254L43.6239 83.9969L44.0092 84.1556L44.8002 84.4417L46.9256 85.1504L47.2699 85.2785C47.319 85.2983 47.3646 85.3175 47.408 85.3368L49.3897 86.3135C49.8892 86.5606 50.2587 87.004 50.4146 87.5316L50.4681 87.7626C50.4902 87.8926 50.5272 88.0206 50.5787 88.1445L50.6666 88.3271C51.0697 89.0583 50.9696 89.9541 50.4385 90.5762L50.2663 90.7542C49.8421 91.1416 49.6116 91.6626 49.6194 92.193C49.6226 92.4203 49.6716 92.6492 49.7626 92.8648L49.8676 93.0752C50.0897 93.4587 50.1761 93.9031 50.1175 94.3374L50.0348 94.7254L50.0139 94.8612L48.8082 105.005C48.7809 105.23 48.7946 105.451 48.8481 105.663L48.9149 105.871C49.0837 106.304 49.0954 106.783 48.948 107.223L48.9085 107.355L48.8805 107.479L47.4234 115.155C47.3751 115.409 47.2776 115.651 47.1374 115.867L46.983 116.074L44.3575 119.153C43.9869 119.588 43.8408 120.145 43.947 120.687C44.0426 121.158 44.3221 121.577 44.7354 121.868L44.953 122.002L46.6401 122.898C46.8988 123.035 47.1231 123.228 47.2978 123.46L47.4193 123.642L48.2255 125.008C48.3963 125.298 48.6528 125.548 48.9568 125.723L49.1932 125.84L53.1388 127.475C53.3043 127.543 53.4593 127.634 53.5999 127.743L53.7994 127.922L54.9815 129.131C55.3112 129.469 55.7691 129.689 56.2576 129.745L56.504 129.759H58.2536C58.5119 129.759 58.7669 129.809 59.0046 129.906L59.2359 130.019L60.4101 130.686C60.5759 130.782 60.7489 130.853 60.9309 130.901L61.2111 130.956L68.1153 131.853C68.7226 131.938 69.3345 131.761 69.7885 131.377L69.9112 131.264L70.0191 131.147C70.4379 130.654 71.0669 130.399 71.7022 130.452L71.9404 130.487L72.6088 130.627L72.9323 130.723L74.5293 131.353C75.0069 131.541 75.3899 131.906 75.6032 132.366L75.6954 132.603C75.8321 133.036 76.1338 133.417 76.539 133.668L76.7499 133.782L78.6817 134.686C79.0049 134.834 79.381 134.9 79.748 134.877L80.0206 134.843L81.6742 134.518C81.8326 134.486 81.9939 134.475 82.1546 134.483L82.3946 134.509L85.8529 135.112L86.2835 135.15C86.411 135.15 86.5384 135.139 86.6577 135.119L86.8298 135.082L91.1706 133.97C91.7072 133.828 92.1644 133.487 92.4205 133.048C92.6324 132.69 92.7139 132.266 92.6557 131.862L92.6038 131.622L91.5492 128.046C91.4291 127.639 91.4431 127.206 91.5854 126.811L91.6862 126.579L92.7709 124.459C93.2709 123.482 94.4683 123.095 95.4455 123.595C96.3529 124.059 96.7513 125.125 96.4032 126.057L96.3096 126.269L95.5849 127.681L96.4182 130.503C96.8282 131.91 96.6854 133.422 96.037 134.715L95.8477 135.061C95.1262 136.299 93.9455 137.238 92.5547 137.702L92.1703 137.817L87.8407 138.926C87.4522 139.031 87.0298 139.095 86.5274 139.114L86.1348 139.12L85.3677 139.053L82.0838 138.487L80.7753 138.746C79.6504 138.959 78.4791 138.86 77.4084 138.458L77.0118 138.293L75.066 137.382C73.9311 136.852 72.9996 135.986 72.3955 134.923L72.3033 134.749L72.0529 134.649C70.877 135.521 69.4274 135.94 67.9797 135.834L67.5851 135.793L60.7019 134.898C60.0572 134.815 59.4374 134.633 58.8603 134.359L58.4358 134.136L57.729 133.733L56.504 133.734C54.9968 133.734 53.5377 133.178 52.4302 132.189L52.1371 131.908L51.2418 130.99L47.671 129.512C46.6039 129.069 45.6817 128.325 45.0319 127.387L44.8012 127.027L44.2796 126.145L43.0807 125.508C41.6296 124.729 40.5738 123.42 40.1433 121.86L40.0489 121.465C39.7332 119.855 40.1082 118.209 41.0767 116.896L41.3312 116.575L43.6138 113.896L44.9739 106.744L44.9971 106.639L44.9708 106.54C44.8477 106.016 44.7991 105.476 44.8267 104.936L44.8617 104.531L46.0723 94.3428L46.0578 94.3066C45.8487 93.7835 45.7163 93.2326 45.6665 92.6722L45.6448 92.2503C45.6297 91.2171 45.893 90.2114 46.3902 89.3235L46.4162 89.2766L45.7711 88.9585L43.5039 88.1994L42.5313 87.8505C41.5288 87.4724 41.0696 87.2077 40.6586 86.6712C39.9912 85.7998 40.1565 84.5523 41.0278 83.8848Z"/>
<path fill-rule="evenodd" clip-rule="evenodd" d="M70.0614 71.5501C71.1591 71.5501 72.0489 72.4399 72.0489 73.5376C72.0489 74.5569 71.2817 75.3969 70.2932 75.5117L70.0614 75.5251H66.0864C64.9888 75.5251 64.0989 74.6353 64.0989 73.5376C64.0989 72.5184 64.8662 71.6783 65.8547 71.5635L66.0864 71.5501H70.0614Z" />
<path fill-rule="evenodd" clip-rule="evenodd" d="M109.811 59.6251C110.909 59.6251 111.799 60.5149 111.799 61.6126C111.799 62.6319 111.032 63.4719 110.043 63.5867L109.811 63.6001H105.836C104.739 63.6001 103.849 62.7103 103.849 61.6126C103.849 60.5934 104.616 59.7533 105.605 59.6385L105.836 59.6251H109.811Z" />
<path fill-rule="evenodd" clip-rule="evenodd" d="M97.8864 99.3751C98.9841 99.3751 99.8739 100.265 99.8739 101.363C99.8739 102.382 99.1067 103.222 98.1182 103.337L97.8864 103.35H93.9114C92.8138 103.35 91.9239 102.46 91.9239 101.363C91.9239 100.343 92.6912 99.5033 93.6797 99.3885L93.9114 99.3751H97.8864Z"/>
</g>
</svg>
